<?xml version="1.0" standalone="no"?>
<!DOCTYPE svg PUBLIC "-//W3C//DTD SVG 20010904//EN"
 "http://www.w3.org/TR/2001/REC-SVG-20010904/DTD/svg10.dtd">
<svg version="1.0" xmlns="http://www.w3.org/2000/svg"
 width="600.000000pt" height="600.000000pt" viewBox="0 0 600.000000 600.000000"
 preserveAspectRatio="xMidYMid meet" fill="currentColor">
<metadata>
Created by potrace 1.16, written by Peter Selinger 2001-2019
</metadata>
<g transform="translate(0.000000,600.000000) scale(0.100000,-0.100000)" stroke="none">
<path d="M3998 5914 c-4 -4 -25 -8 -47 -9 -21 -1 -45 -6 -52 -11 -8 -5 -25 -9
-39 -9 -14 0 -32 -5 -40 -10 -8 -5 -21 -10 -29 -12 -8 -1 -17 -7 -21 -13 -4
-7 -11 -11 -16 -10 -5 0 -18 -2 -29 -6 -11 -3 -24 -7 -30 -8 -5 -1 -9 -7 -8
-14 2 -7 0 -11 -5 -10 -12 2 -60 -20 -67 -32 -3 -5 -11 -8 -16 -5 -5 4 -9 -1
-9 -9 0 -9 -6 -15 -12 -13 -7 1 -12 -4 -10 -11 1 -6 -4 -11 -10 -10 -7 2 -12
-3 -10 -10 1 -6 -4 -11 -10 -10 -7 2 -12 -3 -10 -10 1 -8 -1 -11 -6 -8 -13 8
-63 -44 -56 -56 4 -6 3 -8 -4 -4 -13 8 -44 -22 -36 -35 3 -5 0 -8 -8 -7 -7 2
-12 -3 -10 -10 1 -6 -3 -11 -10 -10 -6 2 -17 -7 -23 -19 -7 -13 -15 -21 -18
-18 -4 3 -5 2 -2 -2 3 -3 -2 -14 -11 -24 -8 -9 -16 -26 -17 -37 0 -11 -6 -20
-11 -19 -6 1 -11 -2 -11 -8 -1 -5 -12 -32 -25 -60 -25 -53 -32 -76 -34 -112
-1 -11 -4 -19 -8 -16 -5 2 -9 -3 -9 -11 -2 -25 -4 -30 -13 -45 -7 -11 -6 -12
5 -6 11 7 12 6 2 -6 -10 -12 -10 -18 0 -29 9 -10 9 -11 0 -6 -15 8 -15 6 -16
-129 -1 -115 14 -217 36 -244 10 -12 9 -13 -3 -6 -13 8 -13 7 -1 -8 7 -9 10
-17 6 -17 -5 0 0 -10 11 -22 12 -13 13 -18 4 -13 -13 8 -13 7 -1 -8 7 -9 10
-17 6 -17 -5 0 -1 -8 8 -17 8 -10 16 -22 17 -28 2 -5 7 -21 13 -35 6 -14 9
-29 8 -33 -1 -5 2 -6 7 -3 5 3 15 -10 22 -29 8 -19 24 -45 37 -56 12 -12 20
-26 16 -32 -3 -6 -1 -7 5 -3 7 4 12 0 12 -10 0 -10 3 -14 7 -11 3 4 11 -3 18
-16 6 -12 17 -21 23 -20 7 2 11 -3 9 -10 -1 -6 4 -11 10 -10 7 2 12 -3 10 -10
-1 -6 4 -11 10 -10 7 2 12 -3 10 -10 -1 -6 4 -11 11 -10 6 2 12 -4 12 -13 0
-8 5 -12 10 -9 6 3 10 -2 10 -11 0 -10 3 -14 7 -11 3 4 16 -2 28 -13 13 -12
32 -22 43 -23 11 0 20 -6 19 -11 -1 -6 3 -11 8 -11 6 -1 25 -11 44 -22 19 -12
38 -20 41 -18 4 3 15 -3 23 -13 14 -15 14 -21 3 -44 -10 -20 -11 -29 -2 -39 6
-6 7 -10 1 -7 -5 3 -20 -14 -31 -38 -12 -24 -18 -41 -13 -38 5 3 0 -11 -11
-31 -11 -20 -16 -34 -10 -30 6 4 1 -10 -10 -30 -11 -20 -22 -44 -23 -53 -2 -9
-10 -31 -19 -49 -12 -23 -13 -34 -4 -43 6 -6 7 -10 1 -8 -5 2 -11 0 -13 -4 -1
-5 -11 -24 -22 -44 -11 -19 -16 -33 -11 -30 5 4 -1 -15 -14 -40 -13 -25 -22
-55 -20 -65 2 -11 0 -17 -6 -14 -5 4 -9 2 -9 -4 0 -5 -5 -22 -12 -38 -6 -15
-12 -30 -12 -33 -1 -3 -6 -13 -12 -23 -11 -19 -71 -30 -80 -15 -3 4 -30 8 -60
8 -42 0 -53 -3 -48 -12 6 -10 5 -10 -8 -1 -8 7 -18 10 -22 6 -3 -4 -30 -7 -59
-8 -28 -1 -51 -5 -50 -11 1 -5 -15 -9 -35 -8 -20 0 -43 -4 -51 -10 -7 -5 -20
-11 -28 -12 -8 -1 -22 -6 -31 -10 -9 -4 -21 -8 -27 -9 -5 0 -9 -6 -8 -12 1 -6
-6 -9 -16 -6 -10 2 -26 -4 -36 -14 -10 -10 -21 -18 -24 -18 -3 0 -5 -3 -4 -7
1 -3 -5 -5 -15 -3 -9 1 -29 -9 -44 -22 -14 -14 -30 -26 -35 -26 -4 -1 -7 -5
-5 -10 1 -4 -4 -6 -10 -5 -7 2 -12 -3 -10 -10 1 -8 -2 -11 -6 -8 -12 7 -44
-28 -35 -39 5 -4 3 -5 -3 -2 -14 8 -47 -26 -37 -38 5 -4 3 -5 -3 -2 -12 7 -47
-25 -39 -36 3 -4 2 -5 -2 -2 -8 6 -53 -35 -53 -48 0 -6 -7 -18 -16 -28 -9 -10
-35 -56 -59 -103 -31 -62 -39 -88 -31 -96 8 -8 7 -11 -4 -8 -8 2 -15 -3 -16
-9 -1 -7 -2 -14 -4 -15 -1 -2 -4 -19 -7 -38 -2 -19 -10 -41 -16 -49 -10 -12
-9 -13 3 -6 13 8 13 7 0 -9 -11 -15 -14 -53 -14 -181 l0 -163 -51 -23 c-27
-12 -52 -23 -55 -24 -11 -4 -47 -19 -90 -38 -25 -12 -49 -21 -55 -22 -5 0 -9
-6 -8 -13 2 -6 -3 -9 -10 -6 -8 3 -27 0 -43 -6 -16 -6 -31 -11 -34 -11 -3 0
-12 -7 -20 -14 -8 -7 -18 -14 -23 -14 -19 0 -75 -25 -71 -32 2 -4 -4 -6 -13
-4 -10 1 -39 -8 -65 -21 -27 -14 -51 -25 -55 -27 -5 -1 -7 -5 -6 -9 2 -4 -6
-5 -17 -3 -11 2 -27 -3 -35 -11 -8 -9 -15 -13 -15 -9 0 3 -14 -1 -30 -10 -23
-12 -30 -12 -28 -3 2 7 -2 12 -7 11 -6 -1 -12 8 -12 19 -1 11 -10 29 -19 39
-10 11 -22 29 -29 42 -6 12 -17 21 -24 19 -7 -1 -10 2 -7 6 7 12 -28 44 -39
35 -4 -5 -5 -3 -2 3 8 14 -26 47 -38 37 -4 -5 -5 -3 -2 3 8 14 -26 47 -38 37
-4 -5 -5 -3 -2 3 4 6 -2 19 -13 29 -11 10 -20 14 -20 10 0 -5 -12 3 -27 17
-16 14 -36 24 -45 23 -10 -2 -16 2 -15 8 1 6 -2 11 -8 12 -5 0 -22 9 -37 19
-15 9 -33 19 -40 20 -7 1 -20 6 -28 11 -8 5 -22 10 -31 10 -9 0 -23 6 -32 14
-10 7 -17 10 -17 6 0 -4 -8 -1 -17 6 -15 12 -16 12 -8 -1 8 -13 7 -13 -10 0
-10 8 -35 15 -56 16 -21 0 -42 3 -45 7 -9 9 -249 9 -258 0 -3 -4 -21 -7 -39
-8 -22 0 -31 -5 -29 -14 2 -11 0 -12 -11 -3 -10 9 -17 9 -27 -1 -10 -10 -11
-9 -5 3 8 13 7 13 -8 1 -9 -7 -17 -10 -17 -6 0 4 -7 1 -16 -6 -9 -7 -23 -14
-31 -15 -8 -1 -22 -6 -31 -10 -9 -4 -23 -8 -30 -10 -7 -1 -25 -11 -40 -20 -15
-10 -31 -19 -37 -19 -5 -1 -9 -7 -7 -14 1 -7 -2 -10 -7 -7 -5 3 -25 -5 -44
-18 -19 -13 -38 -22 -41 -18 -3 3 -6 -2 -6 -11 0 -9 -6 -16 -12 -14 -7 1 -12
-4 -11 -10 2 -7 -3 -12 -10 -10 -6 1 -11 -4 -10 -10 2 -7 -3 -12 -10 -10 -6 1
-11 -4 -9 -11 1 -8 -2 -11 -6 -8 -11 7 -44 -28 -37 -37 3 -4 2 -5 -2 -2 -8 6
-53 -34 -53 -47 0 -5 -11 -21 -24 -35 -13 -14 -23 -34 -21 -44 2 -10 -1 -18
-7 -16 -12 2 -49 -58 -51 -84 -1 -10 -3 -16 -6 -14 -2 3 -10 -5 -16 -18 -9
-16 -9 -26 -1 -36 8 -11 8 -13 0 -8 -7 4 -18 -1 -25 -10 -12 -14 -12 -16 1 -8
12 7 13 6 3 -6 -10 -12 -10 -18 0 -29 7 -8 7 -10 1 -7 -12 7 -33 -55 -37 -108
-2 -17 -7 -36 -11 -44 -7 -10 -5 -12 5 -6 12 7 12 6 1 -7 -9 -12 -10 -18 -2
-23 8 -5 8 -10 0 -20 -8 -10 -8 -15 0 -20 8 -5 8 -10 0 -20 -8 -10 -8 -15 0
-20 8 -5 8 -11 1 -19 -6 -7 -8 -16 -4 -20 10 -10 13 -37 3 -31 -5 3 -7 -3 -5
-12 2 -10 4 -18 5 -18 1 0 4 -13 6 -30 3 -16 7 -37 11 -45 6 -14 9 -31 12 -66
0 -8 5 -13 10 -10 5 4 8 -2 6 -11 -1 -10 5 -27 14 -37 9 -11 11 -16 4 -12 -7
4 1 -18 17 -49 16 -30 26 -55 23 -55 -3 0 1 -7 8 -16 7 -9 18 -26 24 -38 7
-11 18 -20 26 -18 8 2 11 0 7 -3 -4 -4 -1 -19 7 -34 15 -28 185 -201 185 -188
0 5 7 1 16 -7 8 -9 20 -14 25 -10 5 3 8 2 7 -3 -2 -4 0 -8 4 -8 3 0 17 -10 31
-23 13 -13 34 -24 45 -25 11 0 20 -4 19 -7 -1 -3 1 -6 6 -7 4 -2 21 -10 37
-18 17 -9 30 -13 30 -9 0 4 6 1 13 -5 8 -6 22 -12 33 -14 10 -1 24 -6 31 -10
6 -4 31 -10 55 -13 24 -4 52 -10 63 -14 26 -9 251 -6 290 4 17 5 41 10 54 12
14 3 29 8 35 12 6 4 18 7 26 7 8 0 22 5 30 10 8 5 20 10 25 11 6 1 27 9 47 18
21 9 41 16 44 15 3 0 19 11 34 26 15 15 32 28 37 28 4 1 7 6 5 12 -2 5 0 7 3
3 14 -14 60 21 148 109 49 50 89 99 90 110 0 12 5 21 11 20 5 -1 15 8 21 20 7
13 20 32 30 43 10 11 15 20 10 20 -4 0 -2 7 5 15 7 8 9 15 4 15 -4 0 2 10 14
23 18 19 19 26 9 37 -7 8 -8 10 -1 7 14 -8 28 38 18 55 -4 6 -3 8 3 5 13 -8
27 39 17 55 -4 7 -3 8 4 4 8 -5 12 4 13 28 2 64 4 74 11 82 4 4 3 13 -3 20 -7
8 -7 14 1 19 8 5 8 10 0 20 -8 10 -8 15 0 20 8 5 8 11 1 19 -12 15 24 52 49
50 8 0 23 7 34 15 10 9 21 16 25 16 3 0 5 5 3 10 -2 6 2 5 8 -2 10 -9 20 -7
46 8 19 10 34 16 34 12 0 -3 8 1 18 10 9 8 21 17 27 19 5 2 9 7 7 12 -2 5 3 5
10 -1 14 -10 63 8 52 20 -3 3 2 4 13 3 10 -2 24 1 31 7 8 6 22 12 32 14 11 1
35 12 54 23 20 11 36 17 36 14 0 -4 7 0 17 7 9 8 24 14 33 14 9 0 25 7 35 15
10 8 21 15 24 15 3 0 5 3 4 7 -2 4 6 5 17 3 11 -2 27 4 37 13 9 9 19 16 22 14
3 -2 13 -1 21 1 8 2 18 3 21 3 3 -1 14 6 23 14 26 20 56 23 76 5 9 -8 20 -12
25 -8 4 5 5 3 2 -3 -8 -14 26 -47 38 -37 4 5 5 3 2 -3 -8 -14 26 -47 38 -37 4
5 5 3 2 -3 -8 -14 26 -47 38 -37 4 5 5 3 2 -3 -3 -6 3 -18 14 -27 10 -9 19
-14 19 -10 0 4 12 -5 28 -19 15 -14 35 -24 44 -23 10 2 16 0 15 -3 -1 -4 1 -7
4 -7 4 0 15 -7 25 -16 11 -9 27 -15 36 -14 10 2 16 -2 15 -8 -1 -6 3 -12 8
-12 6 -1 18 -5 27 -9 9 -4 22 -8 30 -10 7 -1 18 -5 24 -8 6 -4 21 -9 35 -12
13 -2 38 -8 54 -11 29 -6 32 -4 55 42 13 26 33 59 44 72 12 13 16 21 10 18 -6
-3 -11 0 -11 8 0 8 5 13 10 12 6 -1 16 8 22 20 7 13 19 31 29 42 9 10 18 28
19 39 0 11 5 20 11 19 5 -1 15 8 21 20 7 13 15 20 18 16 4 -3 7 1 7 9 0 9 3
18 8 20 4 2 22 19 40 39 l33 36 -31 -5 c-16 -2 -28 -7 -26 -11 2 -3 -33 -6
-79 -6 -46 0 -81 3 -78 8 4 7 -1 8 -45 11 -11 0 -25 6 -33 12 -8 5 -21 10 -29
9 -8 0 -20 4 -27 10 -7 5 -18 15 -26 21 -7 6 -20 10 -30 8 -9 -1 -15 1 -12 6
6 10 -30 42 -38 33 -4 -3 -7 2 -7 12 0 10 -3 16 -6 12 -7 -7 -23 8 -41 38 -6
11 -16 19 -23 17 -6 -1 -9 2 -6 7 4 5 2 12 -4 16 -6 4 -7 12 -4 18 4 7 3 9 -1
4 -8 -6 -41 51 -45 78 -1 6 -8 17 -16 27 -11 11 -12 18 -4 23 5 3 7 12 3 18
-11 18 -13 36 -13 126 0 46 4 89 10 96 6 7 6 15 0 23 -6 7 -7 10 -3 7 13 -10
30 39 19 54 -8 11 -8 13 2 7 7 -4 12 -2 12 5 0 7 10 24 23 37 12 14 15 21 7
17 -11 -6 -10 -3 3 12 9 11 14 23 10 27 -5 4 -2 6 5 4 8 -2 19 6 25 16 14 24
48 60 62 66 6 3 9 8 7 13 -1 4 4 6 10 5 7 -2 12 2 11 9 -2 7 6 10 16 8 10 -2
30 8 44 21 15 13 28 24 29 22 2 -1 14 2 28 6 25 8 46 12 76 15 9 1 12 6 8 14
-6 9 -4 9 8 -1 9 -7 18 -9 21 -5 6 10 125 8 151 -2 10 -5 29 -9 41 -9 13 -1
30 -8 39 -15 9 -7 16 -11 16 -8 0 3 12 0 27 -8 15 -8 30 -12 35 -9 5 3 7 0 6
-8 -2 -7 2 -12 8 -11 6 1 41 -29 78 -66 48 -48 79 -92 110 -154 24 -48 40 -90
35 -93 -6 -3 -6 -11 -1 -17 11 -14 10 -172 0 -183 -4 -4 -2 -14 5 -22 9 -13 9
-14 0 -8 -9 5 -13 0 -13 -18 0 -14 -4 -27 -9 -30 -5 -3 -11 -15 -14 -26 -4
-17 -3 -19 9 -9 8 6 14 8 14 4 0 -5 8 -1 18 7 15 13 130 72 142 73 3 0 12 5
20 10 8 5 21 10 28 11 8 2 21 6 30 10 9 4 22 8 27 9 6 0 9 7 7 15 -2 10 0 11
11 2 8 -7 17 -9 21 -5 3 4 14 8 23 9 9 2 28 6 42 10 39 11 40 11 51 13 13 1
13 138 0 146 -8 5 -8 11 -1 19 6 7 8 16 4 20 -4 3 -8 16 -10 28 -2 12 -8 27
-13 33 -6 7 -6 15 1 22 8 8 8 13 0 17 -6 4 -11 15 -11 25 0 24 -25 72 -34 66
-3 -3 -2 0 4 7 7 8 3 19 -13 37 -12 13 -15 20 -7 16 13 -8 13 -6 1 8 -7 9 -16
15 -20 13 -4 -3 -7 3 -8 13 -2 24 -39 86 -50 84 -5 -1 -10 7 -10 18 -2 24
-162 191 -175 183 -4 -3 -8 2 -8 11 0 9 -5 13 -10 10 -13 -8 -8 27 7 65 6 14
9 33 7 44 -2 10 -1 16 3 12 12 -12 30 38 19 54 -6 8 -6 12 -2 8 9 -8 35 33 39
61 2 9 10 31 19 49 10 19 12 30 5 25 -7 -3 -3 3 7 15 11 12 16 22 13 22 -4 0
2 15 12 34 12 21 16 38 10 45 -5 6 -6 9 -3 6 8 -5 33 39 37 64 2 9 10 31 19
49 9 18 13 30 8 27 -5 -3 4 19 19 49 18 34 26 58 20 65 -5 6 -6 9 -2 6 12 -9
30 39 20 53 -8 9 -7 12 3 10 8 -2 15 2 16 7 6 35 18 53 32 50 10 -1 28 2 42 8
14 6 37 11 53 12 15 2 29 4 32 5 3 1 10 4 15 5 6 1 11 3 13 4 1 2 13 4 26 7
14 2 30 9 38 15 7 6 13 8 13 4 0 -4 7 -1 16 6 9 7 23 14 32 15 8 2 19 9 23 16
5 7 9 9 9 4 0 -5 8 -2 18 7 9 8 20 16 24 17 23 3 77 44 71 53 -3 7 -2 9 2 4 5
-4 17 0 27 10 10 9 18 13 18 9 0 -4 25 16 55 45 30 29 55 59 55 66 0 9 5 11
13 7 7 -5 6 0 -3 11 -8 10 -10 16 -3 12 14 -9 46 21 37 34 -3 5 0 8 7 7 7 -2
18 7 24 19 7 13 19 31 28 41 13 15 14 21 4 32 -9 10 -9 11 1 6 7 -4 12 -2 12
5 0 7 10 24 23 37 12 14 16 22 9 18 -7 -4 -4 7 7 27 15 27 17 38 8 47 -9 9 -9
11 -1 7 14 -8 31 38 37 95 2 15 6 31 10 34 4 4 1 14 -6 22 -9 13 -9 14 1 8 9
-6 12 22 12 126 0 93 -4 138 -12 147 -8 9 -9 12 -1 7 7 -4 10 0 8 11 -2 10 -4
18 -5 18 -1 0 -3 8 -5 17 -4 24 -26 91 -34 103 -3 6 -6 16 -7 23 -4 21 -74
161 -85 168 -5 3 -6 10 -3 16 4 7 2 8 -4 4 -7 -4 -12 -1 -12 6 0 7 -18 31 -40
53 -21 22 -39 46 -40 53 0 7 -4 10 -10 7 -5 -3 -10 2 -10 11 0 10 -3 15 -6 11
-4 -3 -26 13 -51 36 -49 46 -84 68 -96 60 -4 -2 -6 -1 -5 4 2 4 -1 9 -5 10 -5
0 -22 13 -37 28 -15 15 -30 26 -32 25 -1 -1 -21 5 -43 15 -22 9 -44 18 -50 19
-5 1 -17 6 -25 11 -8 5 -22 10 -30 11 -8 0 -22 4 -30 7 -46 19 -337 37 -352
21z m16 -417 c11 12 215 10 213 -1 -1 -6 12 -10 29 -11 17 0 38 -6 47 -14 9
-7 23 -11 32 -7 8 3 14 2 12 -2 -1 -4 1 -7 5 -7 4 0 25 -18 48 -40 22 -21 40
-36 40 -32 0 4 15 -7 34 -25 18 -18 32 -36 30 -39 -2 -4 6 -15 17 -25 21 -19
60 -95 66 -128 2 -11 9 -26 16 -35 10 -12 9 -13 -3 -6 -12 7 -13 6 -3 -6 13
-17 15 -241 1 -233 -4 3 -8 -4 -8 -15 0 -11 -9 -36 -19 -55 -11 -18 -16 -38
-13 -42 4 -5 5 -8 3 -6 -8 4 -51 -41 -51 -53 0 -6 -25 -35 -55 -64 -30 -29
-55 -49 -55 -45 0 4 -9 -1 -20 -11 -11 -10 -17 -22 -14 -26 3 -5 -1 -6 -9 -3
-7 2 -24 1 -38 -4 -13 -5 -28 -10 -34 -12 -5 -1 -19 -9 -29 -18 -12 -11 -16
-12 -11 -3 6 10 4 12 -6 5 -8 -4 -27 -9 -44 -11 -50 -4 -74 -9 -81 -16 -4 -4
-13 -2 -20 4 -7 5 -39 11 -72 12 -33 1 -58 5 -57 8 4 5 -60 32 -77 34 -3 0
-18 10 -33 23 -16 14 -33 21 -43 17 -9 -3 -13 -3 -9 1 10 10 -23 45 -36 37 -5
-3 -7 -1 -4 4 8 13 -27 46 -37 36 -4 -5 -7 -3 -6 2 5 23 -1 46 -10 40 -5 -3
-10 0 -10 8 0 7 -9 23 -20 35 -11 12 -20 23 -18 24 1 2 -2 14 -6 28 -5 14 -10
34 -12 44 -3 11 -8 24 -13 30 -12 15 -12 214 0 222 6 3 5 12 -3 22 -10 12 -10
14 0 8 12 -7 15 3 15 47 0 10 2 15 5 12 8 -7 42 67 35 78 -2 4 1 6 7 5 7 -2
17 6 23 16 16 26 97 110 97 101 0 -5 9 0 20 10 11 10 17 21 15 25 -3 5 3 7 12
5 10 -1 26 5 37 14 10 9 21 16 25 16 3 0 5 2 4 5 -1 3 13 5 30 5 22 0 31 4 29
14 -2 11 0 12 11 3 8 -7 17 -9 21 -5z m-3181 -3380 c6 10 207 11 223 1 6 -4
22 -9 36 -12 15 -2 36 -9 47 -16 12 -6 21 -8 21 -6 0 3 16 -6 36 -19 20 -14
41 -22 47 -18 5 3 7 1 4 -4 -4 -6 2 -18 13 -28 11 -10 20 -14 20 -9 0 5 6 -2
13 -16 8 -14 20 -23 28 -22 8 2 11 0 6 -4 -8 -8 22 -46 32 -39 4 2 8 -6 8 -17
1 -11 12 -32 25 -46 13 -14 16 -21 8 -17 -12 7 -13 6 -4 -6 6 -8 17 -32 24
-54 7 -22 17 -45 22 -52 6 -7 5 -14 -2 -18 -8 -5 -7 -11 2 -23 11 -13 11 -15
-2 -7 -12 6 -13 5 -3 -5 9 -9 9 -17 2 -26 -7 -8 -7 -14 1 -19 8 -5 8 -10 0
-20 -8 -10 -8 -15 0 -20 8 -5 7 -11 -2 -23 -11 -13 -11 -15 2 -7 12 6 13 5 3
-5 -10 -11 -10 -17 0 -29 7 -8 7 -12 1 -8 -7 4 -16 -10 -24 -36 -6 -23 -17
-48 -24 -56 -7 -10 -7 -12 0 -8 6 3 11 0 11 -8 0 -8 -5 -13 -10 -12 -6 1 -16
-9 -23 -22 -6 -13 -28 -41 -48 -63 -20 -21 -36 -44 -36 -50 0 -6 -3 -8 -7 -4
-4 3 -24 -10 -45 -31 -21 -20 -38 -33 -38 -28 0 4 -9 0 -20 -10 -11 -10 -20
-15 -20 -10 0 4 -7 1 -16 -6 -9 -7 -25 -14 -37 -16 -11 -2 -25 -7 -31 -12 -17
-13 -229 -11 -245 3 -12 9 -13 8 -6 -4 8 -13 7 -13 -10 0 -10 8 -26 15 -35 15
-9 0 -24 6 -33 14 -9 7 -23 11 -32 7 -8 -3 -14 0 -12 6 1 7 -4 12 -11 13 -7 0
-46 34 -87 75 -71 69 -125 153 -125 190 0 9 -3 20 -7 24 -4 3 -8 16 -10 28 -2
12 -8 27 -14 34 -7 8 -7 14 1 19 6 3 7 11 3 18 -9 15 -10 98 0 104 4 3 2 12
-5 21 -10 12 -10 14 0 8 7 -4 12 -1 12 8 0 24 0 24 15 52 7 15 12 35 10 45 -2
11 0 17 6 14 5 -4 9 0 9 8 0 8 6 20 14 26 8 7 13 22 11 33 -3 11 -2 18 2 14 9
-9 44 25 37 36 -3 4 0 7 8 6 7 -2 12 3 11 9 -2 7 3 12 10 10 6 -1 11 5 9 13
-2 8 0 12 4 7 9 -9 46 22 39 33 -3 5 3 6 12 4 10 -3 30 7 46 21 15 14 27 23
27 20 0 -3 13 1 30 10 16 8 33 16 37 18 5 1 7 6 5 11 -2 5 3 4 12 -3 8 -6 17
-8 19 -4z"/>
<path d="M4657 2314 c-4 -4 -30 -8 -59 -9 -79 -4 -80 -4 -74 -13 3 -4 -7 -7
-22 -6 -15 1 -38 -3 -52 -9 -14 -6 -32 -11 -41 -11 -9 -1 -23 -7 -32 -15 -10
-7 -17 -11 -17 -7 0 4 -13 0 -30 -9 -16 -8 -33 -16 -37 -18 -5 -1 -7 -5 -6 -9
1 -3 -5 -5 -15 -3 -9 1 -25 -5 -36 -14 -10 -9 -21 -15 -25 -14 -3 0 -5 -3 -3
-9 1 -5 -1 -7 -6 -4 -5 3 -24 -5 -43 -17 -19 -11 -38 -21 -44 -22 -5 0 -9 -6
-7 -13 1 -7 -4 -11 -10 -10 -7 2 -11 -4 -10 -12 2 -8 0 -12 -3 -8 -10 9 -55
-14 -79 -41 -10 -11 -23 -18 -27 -15 -5 3 -9 -2 -9 -11 0 -9 -4 -14 -9 -11
-12 8 -43 -29 -34 -39 5 -4 3 -5 -3 -2 -14 8 -47 -26 -37 -38 5 -4 3 -5 -3 -2
-14 8 -47 -26 -37 -38 5 -4 3 -5 -3 -2 -12 7 -47 -25 -39 -36 3 -4 2 -5 -2 -2
-10 8 -43 -26 -36 -38 3 -5 1 -7 -4 -4 -13 8 -46 -27 -36 -38 5 -4 3 -5 -3 -2
-14 8 -47 -26 -37 -37 5 -4 2 -6 -5 -4 -8 2 -19 -6 -25 -17 -7 -11 -26 -36
-44 -57 -39 -45 -54 -73 -45 -83 4 -3 1 -5 -7 -3 -8 2 -20 -8 -28 -22 -7 -14
-13 -20 -13 -15 -1 12 -21 -30 -28 -60 -9 -38 -4 -127 8 -151 11 -19 11 -26
-1 -41 -8 -10 -9 -14 -2 -10 9 6 9 1 -1 -18 -16 -31 -13 -110 6 -132 8 -10 8
-14 1 -10 -20 12 14 -46 42 -73 14 -13 25 -30 25 -37 0 -8 5 -11 10 -8 6 3 10
0 10 -8 0 -19 44 -59 55 -50 4 5 5 3 2 -3 -4 -7 0 -17 8 -24 8 -7 15 -19 15
-27 0 -8 5 -11 10 -8 6 3 10 0 10 -8 0 -7 44 -56 98 -108 105 -101 160 -146
175 -141 5 1 6 -2 3 -6 -3 -5 3 -17 14 -27 11 -10 20 -14 20 -10 0 5 17 -7 38
-27 20 -20 45 -34 54 -33 10 2 16 -2 15 -8 -1 -7 4 -11 11 -9 6 1 11 -1 10 -5
-2 -5 2 -9 7 -11 6 -2 18 -10 27 -19 10 -8 24 -13 33 -10 8 4 14 1 12 -5 -1
-7 3 -12 8 -13 6 0 22 -9 37 -19 15 -9 33 -19 40 -20 7 -1 20 -6 28 -11 8 -5
22 -10 31 -10 9 0 23 -6 32 -14 10 -7 17 -10 17 -6 0 4 6 2 14 -5 8 -6 27 -12
43 -14 15 -1 34 -5 40 -9 7 -4 31 -10 54 -12 23 -2 44 -7 47 -10 3 -2 12 1 20
8 13 9 14 9 8 0 -5 -10 5 -13 41 -14 77 -1 152 2 181 8 15 3 41 6 57 7 17 1
37 6 45 11 8 5 22 10 30 10 31 1 109 28 105 36 -3 4 3 6 14 4 10 -2 40 7 65
20 26 13 50 25 54 27 4 2 6 6 5 10 -2 4 6 5 16 3 10 -2 30 8 44 21 15 13 30
25 34 27 5 1 7 5 6 8 -1 4 6 6 16 5 11 0 36 15 57 34 22 19 41 35 44 35 3 0 4
3 2 8 -1 4 4 6 10 5 7 -2 12 3 10 10 -1 8 1 11 5 9 14 -9 49 16 119 84 161
155 255 257 257 276 0 12 6 21 12 20 5 -1 9 4 7 11 -1 6 3 11 10 10 6 -2 17 7
23 19 7 13 15 20 18 16 4 -3 7 0 7 9 0 8 9 23 20 33 11 10 20 28 20 41 0 13 5
26 10 29 8 5 8 11 0 20 -8 10 -8 15 0 20 8 5 7 11 -2 23 -8 10 -8 13 -1 9 6
-4 10 -2 9 5 -4 24 -42 98 -47 93 -3 -3 -6 2 -6 10 0 8 3 13 5 10 7 -7 42 67
36 77 -2 3 0 10 6 13 8 5 8 11 0 20 -8 9 -8 15 0 20 6 3 7 12 3 18 -4 7 -9 21
-10 31 -2 11 -9 26 -16 35 -10 12 -9 13 3 6 13 -8 13 -6 1 8 -7 9 -17 14 -22
11 -5 -3 -9 -2 -8 3 4 22 -2 43 -11 38 -5 -3 -10 -1 -10 5 0 10 -42 59 -117
136 -13 13 -23 28 -23 34 0 6 -4 8 -10 5 -5 -3 -10 2 -10 11 0 10 -3 14 -7 11
-3 -4 -11 3 -17 14 -6 12 -15 21 -20 20 -5 -1 -14 8 -21 21 -6 13 -17 22 -23
21 -7 -2 -12 4 -12 13 0 8 -4 13 -8 10 -5 -3 -18 5 -29 17 -48 54 -110 104
-125 101 -10 -1 -16 3 -15 9 1 7 -4 11 -11 9 -6 -1 -11 3 -10 10 2 6 -7 16
-18 23 -12 6 -28 16 -36 23 -8 6 -18 9 -21 5 -4 -3 -7 1 -7 10 0 10 -7 15 -20
12 -11 -2 -19 1 -17 8 1 6 -2 11 -8 12 -5 0 -28 12 -50 26 -44 28 -102 53
-109 48 -2 -2 -12 3 -22 12 -11 9 -27 15 -37 14 -9 -2 -15 1 -11 6 3 5 -2 10
-10 10 -17 2 -33 5 -41 9 -3 1 -9 4 -15 5 -5 1 -12 4 -15 5 -3 1 -13 3 -22 5
-10 1 -25 5 -34 9 -9 4 -36 8 -61 10 -24 1 -50 6 -57 11 -10 6 -12 4 -6 -6 6
-11 5 -12 -6 -1 -7 6 -19 12 -27 12 -8 0 -10 -5 -6 -12 6 -10 4 -10 -7 -2 -20
16 -81 16 -73 1 5 -8 3 -8 -7 1 -14 13 -32 16 -42 6z m168 -420 c28 -4 52 -8
55 -9 3 0 10 -3 16 -7 6 -4 22 -9 36 -12 15 -2 36 -9 47 -16 12 -6 21 -8 21
-4 0 4 9 -1 20 -11 11 -10 20 -14 20 -10 0 4 9 0 20 -10 11 -10 20 -14 20 -10
0 5 12 -3 28 -17 15 -14 35 -24 44 -23 10 2 16 -2 15 -8 -1 -7 4 -11 11 -9 6
1 11 -1 10 -5 -2 -5 1 -9 5 -10 5 -1 28 -19 51 -40 62 -55 108 -88 119 -85 5
1 6 -2 3 -6 -7 -11 28 -44 37 -37 4 3 5 2 2 -2 -7 -9 26 -44 37 -37 4 3 7 2 6
-3 -3 -11 39 -68 100 -134 23 -25 42 -51 42 -58 0 -7 4 -9 10 -6 6 3 9 -4 8
-19 -1 -13 -7 -24 -13 -23 -5 1 -9 -4 -8 -10 2 -7 -2 -12 -8 -10 -6 1 -16 -7
-22 -18 -11 -18 -72 -87 -124 -141 -13 -13 -23 -29 -23 -35 0 -7 -3 -9 -7 -6
-3 4 -15 -5 -25 -20 -10 -16 -18 -24 -18 -20 0 4 -15 -7 -33 -25 -62 -61 -131
-123 -137 -123 -3 0 -4 -3 -3 -7 2 -5 -3 -7 -10 -5 -6 1 -11 -4 -9 -11 1 -8
-2 -11 -7 -8 -5 3 -25 -5 -45 -19 -20 -13 -36 -22 -36 -18 0 3 -8 -1 -17 -9
-18 -15 -49 -30 -68 -33 -5 0 -9 -6 -8 -12 1 -6 -6 -10 -15 -10 -38 0 -53 -3
-48 -11 2 -4 -8 -7 -22 -6 -15 1 -33 -3 -40 -9 -18 -15 -213 -17 -231 -3 -12
9 -13 8 -6 -4 7 -13 5 -13 -11 1 -10 8 -26 15 -34 14 -8 -1 -27 5 -42 12 -16
7 -28 11 -28 7 0 -4 -7 0 -17 7 -9 8 -23 14 -32 14 -9 1 -31 11 -50 22 -19 12
-39 19 -44 16 -6 -3 -7 -1 -3 5 4 7 1 12 -6 12 -7 0 -26 11 -41 25 -15 14 -27
23 -27 19 0 -4 -8 0 -18 9 -10 10 -22 14 -26 10 -4 -5 -6 -2 -4 6 2 8 -8 20
-22 27 -31 16 -247 233 -264 265 -7 13 -19 23 -27 21 -8 -2 -11 0 -6 4 10 10
-23 45 -36 37 -5 -3 -7 -2 -4 4 3 5 0 22 -8 37 -8 14 -10 24 -5 21 6 -4 10 1
10 10 0 9 5 13 10 10 6 -3 10 -1 10 6 0 7 14 27 31 45 16 17 31 40 32 52 0 12
3 19 6 17 8 -9 41 28 34 39 -3 6 -2 8 2 3 11 -9 46 23 39 35 -3 4 0 7 7 6 7
-2 18 7 24 19 7 13 15 20 18 16 4 -3 7 1 7 11 0 9 5 14 10 11 6 -3 10 -1 10 5
0 13 20 35 35 39 6 2 9 8 7 15 -2 6 0 8 4 3 10 -10 45 23 37 36 -3 5 -1 7 4 4
11 -7 47 26 38 35 -3 3 3 5 14 4 10 0 36 15 57 34 22 19 41 35 44 35 3 0 4 3
3 7 -2 4 4 5 12 1 9 -3 25 3 36 13 12 11 24 19 28 19 3 0 5 3 4 7 -1 3 5 5 15
3 9 -1 23 3 31 9 8 6 21 11 30 11 9 0 23 5 31 10 8 5 24 10 35 12 11 1 43 6
70 11 52 9 86 8 170 -4z"/>
<path d="M4659 1595 c-3 -2 -16 -6 -30 -9 -13 -2 -23 -8 -22 -14 2 -6 -6 -9
-16 -7 -10 2 -29 -7 -42 -19 -13 -12 -28 -23 -34 -25 -5 -2 -9 -7 -7 -12 1 -5
-4 -8 -10 -6 -7 1 -12 -4 -10 -11 1 -8 -2 -11 -7 -8 -5 3 -15 -2 -22 -11 -12
-14 -12 -16 1 -8 8 4 5 -3 -7 -16 -12 -14 -25 -36 -27 -49 -2 -14 -5 -25 -6
-25 -5 0 -11 -49 -11 -103 -1 -39 4 -69 12 -79 11 -13 11 -15 1 -9 -11 7 -11
4 0 -15 7 -13 22 -35 33 -48 12 -15 14 -21 5 -16 -13 8 -13 6 -1 -8 7 -9 17
-14 22 -11 5 3 8 0 7 -8 -2 -7 3 -12 10 -10 6 1 11 -4 10 -10 -2 -7 3 -12 10
-10 6 1 11 -3 10 -10 -2 -7 2 -13 7 -13 6 -1 25 -11 44 -22 19 -12 38 -20 42
-17 4 2 11 0 14 -6 5 -8 11 -7 21 1 12 10 15 10 12 -1 -4 -18 85 -21 118 -4
26 14 26 14 50 14 8 0 13 4 9 9 -3 6 3 8 14 6 11 -2 33 10 54 30 19 18 38 31
41 28 3 -4 6 1 6 9 0 9 7 21 15 28 19 16 48 73 32 63 -7 -4 -5 1 3 11 8 10 16
25 18 35 7 31 9 116 3 126 -3 6 -7 19 -8 29 -2 11 -9 26 -16 35 -8 10 -9 13 0
8 8 -5 7 2 -2 21 -14 28 -135 150 -135 137 0 -4 -6 -2 -13 4 -8 6 -22 12 -33
14 -10 1 -25 7 -33 11 -10 7 -12 5 -6 -5 6 -11 5 -12 -6 -1 -12 11 -110 18
-120 7z"/>
</g>
</svg>
