<svg version="1.2" xmlns="http://www.w3.org/2000/svg" viewBox="0 0 1080 1080" width="1080" height="1080"><style>.a{fill:none;stroke:#ffde59;stroke-miterlimit:100;stroke-width:60}.b{fill:#ffde59}.c{fill:none;stroke:#ffde59;stroke-linecap:round;stroke-miterlimit:100;stroke-width:60}</style><path fill-rule="evenodd" class="a" d="m727.5 343c-65.1 0-117.7-51.9-117.7-116 0-64.2 52.6-116 117.7-116 65.1 0 117.7 51.8 117.7 116 0 64.1-52.6 116-117.7 116z"/><path fill-rule="evenodd" class="b" d="m831.2 897.8c-29.6 0-53.4-23.5-53.4-52.6 0-29.1 23.8-52.6 53.4-52.6 29.5 0 53.4 23.5 53.4 52.6 0 29.1-23.9 52.6-53.4 52.6z"/><path class="b" d=""/><path fill-rule="evenodd" class="c" d="m665.8 823.2c0 0 72-115.3 171.1-110.3 99 4.9 162.7 100.1 162.7 100.1"/><path fill-rule="evenodd" class="c" d="m1000.7 858.8c0 0-72.1 115.4-171.1 110.4-99-5-162.8-100.1-162.8-100.1"/><path fill-rule="evenodd" class="a" d="m197.7 900.9c-65.1 0-117.7-51.9-117.7-116 0-64.1 52.6-116 117.7-116 65.1 0 117.7 51.9 117.7 116 0 64.1-52.6 116-117.7 116z"/><path fill-rule="evenodd" class="a" d="m603.1 750.7c-65.1 0-117.7-51.9-117.7-116 0-64.1 52.6-116 117.7-116 65 0 117.6 51.9 117.6 116 0 64.1-52.6 116-117.6 116z"/><path fill-rule="evenodd" class="a" d="m321.6 759.9l172.1-79.7"/><path fill-rule="evenodd" class="a" d="m719.7 343l-69.5 183.9"/></svg>