<svg version="1.2" xmlns="http://www.w3.org/2000/svg" viewBox="0 0 1080 1080" width="1080" height="1080"><style>.a{fill:#27272a}.b{fill:none;stroke:#ffde59;stroke-miterlimit:100;stroke-width:60}.c{fill:#ffde59}.d{fill:none;stroke:#ffde59;stroke-linecap:round;stroke-miterlimit:100;stroke-width:60}</style><path fill-rule="evenodd" class="a" d="m540 1080c-298.6 0-540-241.4-540-540 0-298.6 241.4-540 540-540 298.6 0 540 241.4 540 540 0 298.6-241.4 540-540 540z"/><path fill-rule="evenodd" class="b" d="m691.7 312.3c-55.4 0-100.1-44.1-100.1-98.7 0-54.5 44.7-98.6 100.1-98.6 55.3 0 100 44.1 100 98.6 0 54.6-44.7 98.7-100 98.7z"/><path fill-rule="evenodd" class="c" d="m779.8 784.2c-25.1 0-45.4-20-45.4-44.8 0-24.7 20.3-44.7 45.4-44.7 25.1 0 45.4 20 45.4 44.7 0 24.8-20.3 44.8-45.4 44.8z"/><path class="c" d=""/><path fill-rule="evenodd" class="d" d="m639.2 720.7c0 0 61.3-98.1 145.5-93.8 84.2 4.2 138.4 85.1 138.4 85.1"/><path fill-rule="evenodd" class="d" d="m924 751c0 0-61.3 98.1-145.5 93.9-84.2-4.2-138.4-85.2-138.4-85.2"/><path fill-rule="evenodd" class="b" d="m241.1 786.8c-55.4 0-100.1-44.1-100.1-98.7 0-54.5 44.7-98.6 100.1-98.6 55.3 0 100.1 44.1 100.1 98.6 0 54.6-44.8 98.7-100.1 98.7z"/><path fill-rule="evenodd" class="b" d="m585.8 659c-55.3 0-100-44.1-100-98.6 0-54.6 44.7-98.6 100-98.7 55.4 0 100.1 44.1 100.1 98.7 0 54.5-44.7 98.6-100.1 98.6z"/><path fill-rule="evenodd" class="b" d="m346.4 666.8l146.4-67.7"/><path fill-rule="evenodd" class="b" d="m685 312.3l-59 156.4"/></svg>